<svg width="500" height="500" viewBox="0 0 500 500" fill="none" xmlns="http://www.w3.org/2000/svg">
<rect width="500" height="500" fill="white"/>
<mask id="mask0_2_187" style="mask-type:alpha" maskUnits="userSpaceOnUse" x="11" y="10" width="275" height="235">
<rect x="11" y="10" width="275" height="235" rx="15" fill="black"/>
</mask>
<g mask="url(#mask0_2_187)">
<rect x="11" y="10" width="275" height="235" rx="15" fill="black"/>
<path d="M262.48 245.763C262.48 211.16 250.472 177.974 229.096 153.506C207.721 129.038 178.729 115.292 148.5 115.292C118.271 115.292 89.2792 129.038 67.9038 153.506C46.5283 177.974 34.5197 211.16 34.5197 245.763L148.5 245.763H262.48Z" fill="white"/>
<path d="M228.105 104.61C228.105 81.9464 219.718 60.2107 204.789 44.1849C189.861 28.159 169.613 19.1558 148.5 19.1558C127.387 19.1558 107.139 28.159 92.2106 44.1849C77.2817 60.2107 68.8947 81.9464 68.8947 104.61L148.5 104.61H228.105Z" fill="white"/>
</g>
<mask id="mask1_2_187" style="mask-type:alpha" maskUnits="userSpaceOnUse" x="296" y="10" width="194" height="235">
<path d="M296 25C296 16.7157 302.716 10 311 10H475C483.284 10 490 16.7157 490 25V230C490 238.284 483.284 245 475 245H311C302.716 245 296 238.284 296 230V25Z" fill="#878787"/>
</mask>
<g mask="url(#mask1_2_187)">
<rect x="297.276" y="10" width="192.724" height="235" rx="15" fill="black"/>
<path d="M385.079 119.292C388.479 112.99 397.521 112.99 400.921 119.292L475.37 257.287C478.605 263.283 474.263 270.56 467.449 270.56H318.551C311.737 270.56 307.395 263.283 310.63 257.287L385.079 119.292Z" fill="white"/>
<path d="M401.194 94.3861C400.016 93.135 400.097 91.1719 401.371 90.0641L556.445 -44.7727C557.65 -45.8204 559.483 -45.7133 560.596 -44.5303L703.939 107.739C705.116 108.99 705.036 110.953 703.762 112.061L548.687 246.898C547.482 247.945 545.65 247.838 544.536 246.655L401.194 94.3861Z" fill="white"/>
<path d="M384.821 94.3861C385.999 93.135 385.919 91.1719 384.645 90.0641L229.57 -44.7727C228.365 -45.8204 226.533 -45.7133 225.419 -44.5303L82.0769 107.739C80.8992 108.99 80.9795 110.953 82.2536 112.061L237.328 246.898C238.533 247.945 240.365 247.838 241.479 246.655L384.821 94.3861Z" fill="white"/>
<path d="M385.079 62.4614C388.479 68.7636 397.521 68.7636 400.921 62.4614L475.37 -75.5335C478.605 -81.5298 474.263 -88.8068 467.449 -88.8068H318.551C311.737 -88.8068 307.395 -81.5298 310.63 -75.5335L385.079 62.4614Z" fill="white"/>
</g>
<mask id="mask2_2_187" style="mask-type:alpha" maskUnits="userSpaceOnUse" x="11" y="255" width="356" height="235">
<path d="M11 270C11 261.716 17.7157 255 26 255H352C360.284 255 367 261.716 367 270V475C367 483.284 360.284 490 352 490H26C17.7157 490 11 483.284 11 475V270Z" fill="#878787"/>
</mask>
<g mask="url(#mask2_2_187)">
<path d="M11 270C11 261.716 17.7157 255 26 255H352C360.284 255 367 261.716 367 270V475C367 483.284 360.284 490 352 490H26C17.7157 490 11 483.284 11 475V270Z" fill="black"/>
<rect x="76.5789" y="381.656" width="353.658" height="82.4026" rx="10" fill="white"/>
<rect x="76.5789" y="285.519" width="353.658" height="57.987" rx="10" fill="white"/>
</g>
<mask id="mask3_2_187" style="mask-type:alpha" maskUnits="userSpaceOnUse" x="377" y="255" width="123" height="235">
<rect x="377" y="255" width="123" height="235" rx="15" fill="#878787"/>
</mask>
<g mask="url(#mask3_2_187)">
<rect x="377" y="255" width="123" height="235" rx="15" fill="black"/>
<rect x="405.322" y="38.3117" width="145.658" height="395.227" rx="15" fill="white"/>
</g>
</svg>
